<svg width="196" height="90" viewBox="0 0 196 90" fill="none" xmlns="http://www.w3.org/2000/svg">
<g clip-path="url(#clip0_108_46)">
<rect x="16" y="19" width="180" height="68" fill="#1E1F27"/>
<rect x="9" y="11" width="180" height="68" fill="#13151C"/>
<rect y="4" width="180" height="68" fill="#090A13"/>
<path d="M10.04 19.08C10.0667 19.5067 10.1067 20.04 10.16 20.68C10.24 21.2933 10.32 21.9467 10.4 22.64C10.48 23.3067 10.56 23.9733 10.64 24.64C10.7467 25.3067 10.84 25.92 10.92 26.48C11.2133 25.8933 11.5733 25.1733 12 24.32C12.4267 23.4667 12.8667 22.6533 13.32 21.88C13.8 21.08 14.28 20.4133 14.76 19.88C15.2667 19.32 15.72 19.04 16.12 19.04C16.5467 19.04 16.9333 19.2533 17.28 19.68C17.6533 20.08 17.9733 20.5733 18.24 21.16C18.5067 21.7467 18.7333 22.3733 18.92 23.04C19.1333 23.7067 19.3067 24.2933 19.44 24.8C19.5467 24.4533 19.68 24.0667 19.84 23.64C20.0267 23.1867 20.2133 22.7333 20.4 22.28C20.6133 21.8 20.84 21.3333 21.08 20.88C21.3467 20.4267 21.6267 20.0267 21.92 19.68C22.2667 19.3067 22.64 19.04 23.04 18.88C23.44 18.6933 23.7333 18.6 23.92 18.6C24.16 18.6 24.44 18.68 24.76 18.84C25.1067 18.9733 25.4533 19.16 25.8 19.4C26.1467 19.64 26.4667 19.9333 26.76 20.28C27.08 20.6 27.3333 20.9333 27.52 21.28C27.8933 22 28.1867 22.7867 28.4 23.64C28.64 24.4933 28.8133 25.3067 28.92 26.08C29.0267 26.8533 29.0933 27.5467 29.12 28.16C29.1733 28.7467 29.2133 29.16 29.24 29.4C29.24 29.7467 29.2 30.0133 29.12 30.2C29.04 30.36 28.8933 30.4933 28.68 30.6C28.3867 30.7333 28.1333 30.7867 27.92 30.76C27.7067 30.7067 27.5333 30.6133 27.4 30.48C27.2667 30.3467 27.16 30.2 27.08 30.04C27 29.8533 26.9467 29.6933 26.92 29.56C26.84 28.9467 26.7467 28.32 26.64 27.68C26.56 27.04 26.4667 26.4267 26.36 25.84C26.2533 25.2267 26.12 24.6667 25.96 24.16C25.8267 23.6267 25.68 23.16 25.52 22.76C25.4667 22.6533 25.3733 22.52 25.24 22.36C25.1333 22.1733 25 22 24.84 21.84C24.7067 21.68 24.5733 21.5467 24.44 21.44C24.3067 21.3333 24.2133 21.2667 24.16 21.24C23.8933 21.24 23.6133 21.4933 23.32 22C23.0267 22.48 22.7467 23.0667 22.48 23.76C22.2133 24.4533 21.96 25.1867 21.72 25.96C21.5067 26.7067 21.3467 27.3467 21.24 27.88C21.24 28.5733 21.1067 29.0933 20.84 29.44C20.5733 29.76 20.2933 29.92 20 29.92C19.7067 29.92 19.3867 29.8133 19.04 29.6C18.72 29.36 18.5067 29.0933 18.4 28.8C18.24 28.3733 18.0667 27.8933 17.88 27.36C17.6933 26.8267 17.4933 26.28 17.28 25.72C17.0933 25.16 16.8933 24.6133 16.68 24.08C16.4933 23.5467 16.3067 23.0667 16.12 22.64C15.7467 23.1467 15.3733 23.7067 15 24.32C14.6533 24.9333 14.3067 25.56 13.96 26.2C13.64 26.84 13.32 27.48 13 28.12C12.7067 28.7333 12.4267 29.28 12.16 29.76C11.9733 30.0533 11.7733 30.32 11.56 30.56C11.3467 30.7733 11.0933 30.88 10.8 30.88C10.5867 30.88 10.36 30.7867 10.12 30.6C9.88 30.3867 9.65333 30.1333 9.44 29.84C9.22667 29.5467 9.02667 29.2133 8.84 28.84C8.68 28.4667 8.56 28.0933 8.48 27.72C8.26667 26.5733 8.08 25.32 7.92 23.96C7.78667 22.5733 7.65333 21.2267 7.52 19.92C7.49333 19.4667 7.54667 19.0533 7.68 18.68C7.84 18.28 8.13333 18.0133 8.56 17.88C9.01333 17.8 9.36 17.8667 9.6 18.08C9.84 18.2933 9.98667 18.6267 10.04 19.08ZM39.2038 15.68C39.1504 15.9467 38.9638 16.0933 38.6438 16.12C38.3238 16.1467 38.0571 16.16 37.8438 16.16C37.1771 16.1867 36.4838 16.2533 35.7638 16.36C35.0704 16.4667 34.3371 16.6267 33.5638 16.84C33.2438 16.9467 32.8971 16.9067 32.5238 16.72C32.1504 16.5333 31.9238 16.16 31.8438 15.6C31.8438 15.3867 31.9238 15.2133 32.0838 15.08C32.2438 14.9467 32.4304 14.8267 32.6438 14.72C32.9904 14.56 33.4038 14.4267 33.8838 14.32C34.3638 14.1867 34.8438 14.0933 35.3238 14.04C35.8304 13.9867 36.3104 13.9733 36.7638 14C37.2171 14 37.5904 14.04 37.8838 14.12C38.3104 14.2533 38.6438 14.4533 38.8838 14.72C39.1504 14.9867 39.2571 15.3067 39.2038 15.68ZM38.2838 29C38.4704 29.4267 38.5638 29.8933 38.5638 30.4C38.5904 30.88 38.4571 31.2133 38.1638 31.4C37.7904 31.64 37.3904 31.6267 36.9638 31.36C36.5371 31.0933 36.2171 30.7333 36.0038 30.28C35.7104 29.72 35.4838 29.04 35.3238 28.24C35.1638 27.4133 35.0438 26.6 34.9638 25.8C34.8838 25 34.8304 24.2533 34.8038 23.56C34.8038 22.8667 34.8038 22.3467 34.8038 22C34.8304 21.6267 34.9371 21.28 35.1238 20.96C35.3104 20.64 35.5504 20.4533 35.8438 20.4C36.3238 20.4267 36.7104 20.6533 37.0038 21.08C37.2971 21.48 37.4304 21.9867 37.4038 22.6C37.4038 23.08 37.4171 23.6133 37.4438 24.2C37.4704 24.7867 37.5238 25.3733 37.6038 25.96C37.6838 26.5467 37.7771 27.12 37.8838 27.68C37.9904 28.2133 38.1238 28.6533 38.2838 29ZM53.1713 18.92C53.2779 18.8933 53.4379 18.88 53.6513 18.88C53.8646 18.8533 54.0646 18.8667 54.2513 18.92C54.4646 18.9467 54.6379 19.0133 54.7713 19.12C54.9313 19.2 55.0246 19.3067 55.0513 19.44C55.1046 19.76 55.0513 20.0533 54.8913 20.32C54.7579 20.56 54.5046 20.7733 54.1313 20.96C53.1179 21.44 52.0646 21.9867 50.9713 22.6C49.8779 23.1867 48.9446 23.72 48.1713 24.2C48.6513 24.52 49.1979 24.88 49.8113 25.28C50.4513 25.68 51.1046 26.1067 51.7713 26.56C52.4379 26.9867 53.1046 27.4533 53.7713 27.96C54.4379 28.44 55.0646 28.92 55.6513 29.4C56.1846 29.8533 56.2779 30.2667 55.9313 30.64C55.7713 30.8267 55.5046 30.96 55.1313 31.04C54.7846 31.12 54.4513 31.08 54.1313 30.92C53.5446 30.6267 52.9046 30.28 52.2113 29.88C51.5179 29.4533 50.8113 29.0267 50.0913 28.6C49.3713 28.1467 48.6646 27.7067 47.9713 27.28C47.3046 26.8267 46.6913 26.4133 46.1313 26.04C46.2379 26.9733 46.3313 27.9067 46.4112 28.84C46.5179 29.7733 46.6113 30.7067 46.6913 31.64C46.8513 32.1467 46.8379 32.56 46.6513 32.88C46.4646 33.2 46.1579 33.3467 45.7313 33.32C45.2779 33.24 44.9446 33.0667 44.7313 32.8C44.5179 32.5067 44.3579 32.1333 44.2513 31.68C44.0913 30.5867 43.9046 29.2933 43.6913 27.8C43.5046 26.3067 43.3046 24.76 43.0913 23.16C42.8779 21.56 42.6646 20 42.4513 18.48C42.2646 16.96 42.0913 15.6133 41.9313 14.44C41.8779 14.0667 41.8379 13.6667 41.8113 13.24C41.8113 12.7867 41.9579 12.4933 42.2513 12.36C42.6513 12.2 43.0646 12.2933 43.4913 12.64C43.9179 12.96 44.2379 13.4533 44.4513 14.12C44.6646 15.3467 44.8779 16.68 45.0913 18.12C45.3046 19.56 45.5179 21.08 45.7313 22.68C46.2646 22.36 46.8779 22.0133 47.5713 21.64C48.2913 21.24 48.9979 20.8667 49.6913 20.52C50.4113 20.1467 51.0779 19.8133 51.6913 19.52C52.3046 19.2267 52.7979 19.0267 53.1713 18.92ZM70.3813 18.2C69.9013 18.4667 69.3946 18.7467 68.8613 19.04C68.3546 19.3333 67.8346 19.68 67.3013 20.08C66.7946 20.4533 66.3013 20.9067 65.8213 21.44C65.3679 21.9467 64.9546 22.56 64.5813 23.28C64.0479 24.2933 63.6879 25.3333 63.5013 26.4C63.3146 27.44 63.1946 28.4667 63.1413 29.48C63.1413 29.96 63.0213 30.4533 62.7813 30.96C62.5679 31.44 62.2613 31.68 61.8613 31.68C61.3546 31.68 60.9413 31.4267 60.6213 30.92C60.3279 30.3867 60.1279 29.88 60.0213 29.4C59.5679 27.5067 59.1946 25.64 58.9013 23.8C58.6079 21.9333 58.3546 20.08 58.1413 18.24C58.1413 17.8667 58.2479 17.6267 58.4613 17.52C58.7013 17.4133 58.9679 17.3733 59.2613 17.4C59.5813 17.4267 59.8879 17.5067 60.1813 17.64C60.4746 17.7733 60.6479 17.9867 60.7013 18.28C60.8079 19.2667 60.9413 20.3067 61.1013 21.4C61.2613 22.4667 61.4213 23.3867 61.5813 24.16C61.6879 23.2533 61.9813 22.3733 62.4613 21.52C62.9413 20.6667 63.5279 19.8933 64.2213 19.2C64.9413 18.5067 65.7413 17.92 66.6213 17.44C67.5279 16.96 68.4479 16.64 69.3813 16.48C69.7813 16.4267 70.1146 16.4267 70.3813 16.48C70.6479 16.5333 70.8346 16.6267 70.9413 16.76C71.0479 16.8933 71.0613 17.1067 70.9813 17.4C70.9279 17.6933 70.7279 17.96 70.3813 18.2ZM76.2363 20.16C76.0763 20.88 75.9163 21.68 75.7563 22.56C75.5963 23.4133 75.4763 24.24 75.3963 25.04C75.3429 25.84 75.3429 26.56 75.3963 27.2C75.4763 27.84 75.6496 28.2933 75.9163 28.56C76.3696 28.64 76.8896 28.4533 77.4763 28C78.0629 27.52 78.6363 26.92 79.1963 26.2C79.7563 25.48 80.2629 24.7067 80.7163 23.88C81.1696 23.0267 81.4896 22.28 81.6763 21.64C81.7829 21.32 81.8763 20.9867 81.9563 20.64C82.0363 20.2933 82.0763 19.9333 82.0763 19.56C82.0763 19.3467 82.2096 19.1467 82.4763 18.96C82.7696 18.7467 83.0096 18.6267 83.1963 18.6C83.3296 18.5733 83.4763 18.6 83.6363 18.68C83.8229 18.76 83.9829 18.88 84.1163 19.04C84.2763 19.1733 84.4096 19.3467 84.5163 19.56C84.6496 19.7467 84.7163 19.9467 84.7163 20.16C84.7696 20.96 84.8496 21.84 84.9563 22.8C85.0629 23.76 85.1829 24.72 85.3163 25.68C85.4763 26.64 85.6363 27.5733 85.7963 28.48C85.9563 29.3867 86.1163 30.2 86.2763 30.92C86.3563 31.2133 86.2763 31.5467 86.0363 31.92C85.7963 32.2933 85.5296 32.52 85.2363 32.6C84.9963 32.6533 84.7429 32.6267 84.4763 32.52C84.2363 32.4133 84.0496 32.2 83.9163 31.88C83.7829 31.5067 83.6496 31.0533 83.5163 30.52C83.4096 29.96 83.3029 29.3867 83.1963 28.8C83.1163 28.1867 83.0363 27.6133 82.9563 27.08C82.8763 26.52 82.8229 26.0533 82.7963 25.68C82.3963 26.4 81.9163 27.1333 81.3563 27.88C80.8229 28.6 80.2363 29.2667 79.5963 29.88C78.9829 30.4667 78.3296 30.9333 77.6363 31.28C76.9696 31.6 76.2763 31.72 75.5563 31.64C74.4896 31.5067 73.6763 30.5067 73.1163 28.64C72.9029 27.8933 72.7963 27.0667 72.7963 26.16C72.8229 25.2533 72.8896 24.36 72.9963 23.48C73.1296 22.5733 73.2763 21.72 73.4363 20.92C73.6229 20.12 73.7829 19.4667 73.9163 18.96C73.9696 18.7467 74.0763 18.56 74.2363 18.4C74.3963 18.2133 74.5829 18.1467 74.7963 18.2C75.1963 18.28 75.5563 18.52 75.8763 18.92C76.2229 19.32 76.3429 19.7333 76.2363 20.16ZM98.2825 21.28C98.7892 21.2533 99.2958 21.3733 99.8025 21.64C100.309 21.9067 100.563 22.32 100.563 22.88C100.509 23.3333 100.256 23.6267 99.8025 23.76C99.3758 23.8667 99.0292 23.92 98.7625 23.92C98.2292 23.92 97.6558 23.9333 97.0425 23.96C96.4292 23.9867 95.8025 24.0267 95.1625 24.08C95.1092 24.96 95.0558 25.7867 95.0025 26.56C94.9758 27.3333 94.9492 28.0267 94.9225 28.64C94.8958 29.2267 94.8825 29.7067 94.8825 30.08C94.8825 30.4533 94.8958 30.6533 94.9225 30.68C95.5092 30.5733 96.1358 30.4 96.8025 30.16C97.4958 29.8933 98.1758 29.6133 98.8425 29.32C99.5358 29 100.203 28.68 100.843 28.36C101.509 28.0133 102.136 27.6933 102.723 27.4C102.989 27.2667 103.229 27.2267 103.443 27.28C103.683 27.3333 103.829 27.4533 103.883 27.64C103.936 27.9333 103.896 28.2933 103.763 28.72C103.629 29.1467 103.389 29.5333 103.043 29.88C102.643 30.2 102.109 30.5733 101.443 31C100.803 31.4 100.109 31.7867 99.3625 32.16C98.6158 32.5333 97.8558 32.8667 97.0825 33.16C96.3358 33.4267 95.6692 33.5867 95.0825 33.64C94.2025 33.72 93.5358 33.48 93.0825 32.92C92.6292 32.36 92.3758 31.6533 92.3225 30.8C92.2692 29.9467 92.2558 28.96 92.2825 27.84C92.3358 26.72 92.3892 25.5333 92.4425 24.28C91.9358 24.3333 91.4425 24.3867 90.9625 24.44C90.5092 24.4667 90.0692 24.5067 89.6425 24.56C89.2958 24.56 88.9092 24.48 88.4825 24.32C88.0825 24.16 87.8825 23.8533 87.8825 23.4C87.8825 23.24 87.9492 23.0267 88.0825 22.76C88.2158 22.4933 88.5092 22.2933 88.9625 22.16C90.0558 21.9733 91.2692 21.8133 92.6025 21.68C92.6825 20.4267 92.7758 19.2133 92.8825 18.04C92.9892 16.8667 93.0825 15.8 93.1625 14.84C93.1892 14.52 93.2825 14.24 93.4425 14C93.6025 13.76 93.7758 13.64 93.9625 13.64C94.4158 13.6133 94.8425 13.7333 95.2425 14C95.6692 14.24 95.8825 14.52 95.8825 14.84C95.7758 15.7467 95.6692 16.7733 95.5625 17.92C95.4825 19.0667 95.4025 20.24 95.3225 21.44C95.8558 21.3867 96.3625 21.36 96.8425 21.36C97.3492 21.3333 97.8292 21.3067 98.2825 21.28Z" fill="white"/>
<path d="M117.211 22.08C117.317 22.3467 117.211 22.6133 116.891 22.88C116.571 23.12 116.064 23.28 115.371 23.36C114.171 23.52 112.944 23.6933 111.691 23.88C110.437 24.04 109.157 24.2133 107.851 24.4C107.797 25.76 107.797 27.12 107.851 28.48C108.464 28.48 109.197 28.4267 110.051 28.32C110.931 28.1867 111.824 28.0267 112.731 27.84C113.637 27.6533 114.504 27.4667 115.331 27.28C116.184 27.0667 116.904 26.8933 117.491 26.76C117.784 26.68 118.091 26.6267 118.411 26.6C118.731 26.5467 119.011 26.5467 119.251 26.6C119.517 26.6267 119.731 26.72 119.891 26.88C120.051 27.04 120.131 27.2667 120.131 27.56C120.131 27.64 120.037 27.76 119.851 27.92C119.664 28.08 119.424 28.2533 119.131 28.44C118.864 28.6 118.571 28.76 118.251 28.92C117.957 29.0533 117.691 29.16 117.451 29.24C115.797 29.7733 114.171 30.24 112.571 30.64C110.971 31.0133 109.411 31.2133 107.891 31.24C107.011 31.2667 106.344 31.04 105.891 30.56C105.437 30.0533 105.197 29.3333 105.171 28.4C105.117 27.0933 105.117 25.7733 105.171 24.44C104.717 24.1733 104.491 23.8 104.491 23.32C104.544 22.8133 104.784 22.4667 105.211 22.28C105.264 21.5067 105.304 20.7333 105.331 19.96C105.357 19.16 105.397 18.3733 105.451 17.6C105.157 17.5467 104.891 17.4 104.651 17.16C104.437 16.92 104.331 16.6533 104.331 16.36C104.331 16.12 104.384 15.9067 104.491 15.72C104.597 15.5067 104.797 15.3467 105.091 15.24C105.571 15.1333 106.157 15.0133 106.851 14.88C107.544 14.7467 108.251 14.6267 108.971 14.52C109.717 14.4133 110.424 14.32 111.091 14.24C111.784 14.16 112.371 14.1067 112.851 14.08C113.411 14.0267 113.944 14.08 114.451 14.24C114.984 14.4 115.477 14.7067 115.931 15.16C116.037 15.5333 115.957 15.8133 115.691 16C115.451 16.1867 115.131 16.3067 114.731 16.36C114.331 16.4133 113.851 16.48 113.291 16.56C112.731 16.6133 112.144 16.68 111.531 16.76C110.944 16.84 110.344 16.92 109.731 17C109.144 17.0533 108.584 17.12 108.051 17.2C108.051 17.2533 108.051 17.32 108.051 17.4C108.077 17.4533 108.091 17.5067 108.091 17.56C108.037 18.2533 107.997 18.9467 107.971 19.64C107.944 20.3333 107.917 21.0267 107.891 21.72C109.011 21.5333 110.157 21.3733 111.331 21.24C112.504 21.08 113.437 20.9733 114.131 20.92C114.691 20.8667 115.237 20.9333 115.771 21.12C116.304 21.3067 116.784 21.6267 117.211 22.08ZM135.657 17.68C134.75 20.1067 133.75 22.3733 132.657 24.48C131.59 26.5867 130.417 28.5067 129.137 30.24C128.764 30.7733 128.31 31.0133 127.777 30.96C127.35 30.9067 127.017 30.7333 126.777 30.44C126.537 30.1467 126.35 29.8667 126.217 29.6C125.897 28.9333 125.537 28.0933 125.137 27.08C124.764 26.0667 124.404 25.0533 124.057 24.04C123.71 23 123.404 22.0667 123.137 21.24C122.87 20.3867 122.684 19.8133 122.577 19.52C122.417 19.3867 122.23 19.2 122.017 18.96C121.804 18.72 121.63 18.4667 121.497 18.2C121.364 17.9067 121.297 17.6267 121.297 17.36C121.297 17.0933 121.417 16.8533 121.657 16.64C122.004 16.48 122.337 16.4267 122.657 16.48C122.977 16.5333 123.27 16.6533 123.537 16.84C123.804 17.0267 124.044 17.2533 124.257 17.52C124.47 17.7867 124.644 18.04 124.777 18.28C124.99 18.8933 125.23 19.6 125.497 20.4C125.764 21.1733 126.03 21.9867 126.297 22.84C126.59 23.6667 126.87 24.48 127.137 25.28C127.404 26.08 127.657 26.8 127.897 27.44C128.377 26.8267 128.87 26.08 129.377 25.2C129.91 24.2933 130.43 23.3467 130.937 22.36C131.47 21.3733 131.977 20.3733 132.457 19.36C132.937 18.32 133.377 17.3467 133.777 16.44C133.937 16.0667 134.164 15.7467 134.457 15.48C134.75 15.2133 135.044 15.1067 135.337 15.16C135.71 15.2933 135.91 15.5867 135.937 16.04C135.99 16.4933 135.897 17.04 135.657 17.68ZM140.298 32.04C140.165 32.4933 139.992 32.9067 139.778 33.28C139.565 33.6267 139.338 33.8267 139.098 33.88C138.592 34.0133 138.205 33.9333 137.938 33.64C137.672 33.3467 137.565 32.9733 137.618 32.52C137.832 30.92 138.178 29.24 138.658 27.48C139.138 25.6933 139.698 23.92 140.338 22.16C140.978 20.3733 141.672 18.6533 142.418 17C143.192 15.32 143.978 13.8 144.778 12.44C144.912 12.2267 145.058 12.1067 145.218 12.08C145.405 12.0267 145.565 12.0267 145.698 12.08C145.832 11.9733 145.992 11.88 146.178 11.8C146.365 11.72 146.552 11.68 146.738 11.68C146.818 11.68 146.898 11.6933 146.978 11.72C147.085 11.7467 147.192 11.8267 147.298 11.96C147.405 12.0933 147.525 12.2933 147.658 12.56C147.818 12.8 148.005 13.16 148.218 13.64C148.592 15 149.018 16.4 149.498 17.84C150.005 19.28 150.525 20.72 151.058 22.16C151.138 22.1333 151.205 22.12 151.258 22.12C151.338 22.0933 151.418 22.0667 151.498 22.04C151.792 22.0133 152.125 22.0267 152.498 22.08C152.872 22.1333 153.125 22.32 153.258 22.64C153.418 23.04 153.392 23.3867 153.178 23.68C152.965 23.9733 152.578 24.2667 152.018 24.56C152.365 25.4133 152.712 26.2533 153.058 27.08C153.405 27.88 153.765 28.6667 154.138 29.44C154.165 29.5733 154.205 29.7867 154.258 30.08C154.312 30.3467 154.338 30.6267 154.338 30.92C154.365 31.1867 154.352 31.44 154.298 31.68C154.245 31.92 154.138 32.08 153.978 32.16C153.792 32.24 153.592 32.2267 153.378 32.12C153.192 32.0133 153.005 31.88 152.818 31.72C152.632 31.5333 152.458 31.3467 152.298 31.16C152.165 30.9467 152.058 30.76 151.978 30.6C151.525 29.72 151.085 28.84 150.658 27.96C150.258 27.0533 149.872 26.1467 149.498 25.24C148.378 25.4533 147.152 25.64 145.818 25.8C144.512 25.96 143.218 26.0667 141.938 26.12C141.645 27.1333 141.352 28.1333 141.058 29.12C140.792 30.08 140.538 31.0533 140.298 32.04ZM145.978 15.24C144.752 17.9867 143.685 20.7333 142.778 23.48C144.565 23.4267 146.472 23.2 148.498 22.8C147.538 20.3733 146.698 17.8533 145.978 15.24ZM172.297 15.64C172.11 17.9067 171.884 20.2267 171.617 22.6C171.377 24.9467 171.044 27.16 170.617 29.24C170.51 29.7467 170.364 30.1067 170.177 30.32C169.99 30.5333 169.724 30.68 169.377 30.76C169.084 30.8133 168.67 30.72 168.137 30.48C167.63 30.24 167.204 29.8933 166.857 29.44C166.404 28.8267 165.91 28.16 165.377 27.44C164.87 26.6933 164.31 25.9467 163.697 25.2C163.11 24.4267 162.484 23.6667 161.817 22.92C161.177 22.1733 160.497 21.48 159.777 20.84C159.697 22.6 159.63 24.3467 159.577 26.08C159.524 27.7867 159.524 29.5067 159.577 31.24C159.577 31.48 159.364 31.6 158.937 31.6C158.43 31.6 158.017 31.3467 157.697 30.84C157.377 30.3067 157.19 29.7733 157.137 29.24C157.057 28.7067 157.017 27.9467 157.017 26.96C157.017 25.9467 157.03 24.8933 157.057 23.8C157.11 22.7067 157.164 21.6533 157.217 20.64C157.27 19.6267 157.324 18.8267 157.377 18.24C157.43 17.6 157.577 17.1333 157.817 16.84C158.084 16.5467 158.337 16.4133 158.577 16.44C159.11 16.4933 159.457 16.6533 159.617 16.92C159.804 17.16 159.91 17.4667 159.937 17.84C160.897 18.5333 161.777 19.28 162.577 20.08C163.404 20.88 164.15 21.6933 164.817 22.52C165.51 23.3467 166.137 24.1733 166.697 25C167.284 25.8 167.83 26.5333 168.337 27.2C168.657 25.6 168.91 23.8133 169.097 21.84C169.31 19.8667 169.524 17.8 169.737 15.64C169.71 15.3733 169.87 15.12 170.217 14.88C170.564 14.6133 170.884 14.4933 171.177 14.52C171.924 14.5733 172.297 14.9467 172.297 15.64Z" fill="#FA5F55"/>
<path d="M10.76 63.36C10.8933 64.32 10.4933 64.8667 9.56 65C9.08 65.0533 8.68 64.92 8.36 64.6C8.06667 64.28 7.88 63.8933 7.8 63.44C7.72 62.96 7.74667 62.4933 7.88 62.04C8.04 61.5867 8.33333 61.3333 8.76 61.28C9.29333 61.2 9.74667 61.4 10.12 61.88C10.4933 62.3333 10.7067 62.8267 10.76 63.36ZM22.3688 43.72C22.2888 43.24 22.3154 42.8 22.4488 42.4C22.6088 42 22.9154 41.7733 23.3688 41.72C23.7688 41.6667 24.1154 41.7733 24.4088 42.04C24.7288 42.3067 24.9288 42.6533 25.0088 43.08C25.5421 46.1467 26.0354 49.2 26.4888 52.24C26.9688 55.2533 27.3954 58.2133 27.7688 61.12C27.8754 61.8933 27.8221 62.4267 27.6088 62.72C27.3954 62.9867 27.1421 63.1867 26.8488 63.32C26.5288 63.4533 26.2221 63.4533 25.9288 63.32C25.6621 63.1867 25.4888 62.9467 25.4088 62.6L25.3688 62.36L25.2088 62.4C24.3288 62.72 23.4088 62.9067 22.4488 62.96C21.4888 62.9867 20.5688 62.8667 19.6888 62.6C18.8088 62.3333 18.0221 61.9067 17.3288 61.32C16.6621 60.7067 16.1821 59.9333 15.8888 59C15.2488 56.9467 15.6488 55.08 17.0888 53.4C17.7021 52.7067 18.4621 52.08 19.3688 51.52C20.2754 50.96 21.3688 50.52 22.6488 50.2L23.3688 50.04L22.3688 43.72ZM18.3288 58C18.4888 58.64 18.7821 59.1333 19.2088 59.48C19.6354 59.8267 20.1421 60.0667 20.7288 60.2C21.3154 60.3067 21.9421 60.32 22.6088 60.24C23.2754 60.16 23.9288 60.0133 24.5688 59.8L24.9288 59.68L23.8088 52.64L23.0088 52.84C22.4488 53 21.8488 53.2533 21.2088 53.6C20.5954 53.92 20.0488 54.3067 19.5688 54.76C19.0888 55.2133 18.7154 55.72 18.4488 56.28C18.2088 56.84 18.1688 57.4133 18.3288 58ZM39.5856 54.6C38.5456 55.2133 37.4256 55.6933 36.2256 56.04C35.0256 56.36 33.7323 56.52 32.3456 56.52C32.399 57.4533 32.6656 58.2 33.1456 58.76C33.6256 59.2933 34.2256 59.6133 34.9456 59.72C35.3723 59.7733 35.799 59.76 36.2256 59.68C36.679 59.6 37.0923 59.48 37.4656 59.32C37.8656 59.1333 38.2256 58.9333 38.5456 58.72C38.8656 58.5067 39.1456 58.2933 39.3856 58.08C39.6256 57.8667 39.879 57.7333 40.1456 57.68C40.4123 57.6 40.6123 57.5867 40.7456 57.64C41.119 57.7733 41.2523 58.1733 41.1456 58.84C40.719 59.6933 40.1056 60.4267 39.3056 61.04C38.5056 61.6267 37.6123 62 36.6256 62.16C35.7723 62.32 34.8923 62.28 33.9856 62.04C33.079 61.8 32.2656 61.3333 31.5456 60.64C30.9323 60.0267 30.4656 59.3067 30.1456 58.48C29.8256 57.6533 29.6256 56.8 29.5456 55.92C29.4656 55.0933 29.5323 54.3067 29.7456 53.56C29.9856 52.8133 30.3456 52.16 30.8256 51.6C31.3056 51.0133 31.9056 50.5333 32.6256 50.16C33.3456 49.7867 34.1856 49.5733 35.1456 49.52C36.2923 49.44 37.3323 49.6533 38.2656 50.16C39.199 50.6667 39.8523 51.3733 40.2256 52.28C40.439 52.7867 40.4923 53.2267 40.3856 53.6C40.3056 53.9733 40.039 54.3067 39.5856 54.6ZM34.9856 51.88C34.719 51.9333 34.4256 52.0267 34.1056 52.16C33.8123 52.2933 33.5323 52.4667 33.2656 52.68C33.0256 52.8667 32.799 53.0933 32.5856 53.36C32.399 53.6 32.2923 53.88 32.2656 54.2C32.719 54.2 33.2123 54.16 33.7456 54.08C34.3056 54 34.839 53.9067 35.3456 53.8C35.879 53.6667 36.359 53.52 36.7856 53.36C37.239 53.2 37.6123 53.0267 37.9056 52.84C37.6923 52.3333 37.2923 52.0267 36.7056 51.92C36.1456 51.7867 35.5723 51.7733 34.9856 51.88ZM57.4091 49.48C56.9824 50.2 56.5557 50.9067 56.1291 51.6C55.7024 52.2933 55.2357 53.0933 54.7291 54C54.2491 54.88 53.6891 55.9067 53.0491 57.08C52.4091 58.2533 51.6624 59.68 50.8091 61.36C50.5957 61.76 50.3824 62.08 50.1691 62.32C49.9557 62.56 49.7024 62.68 49.4091 62.68C49.0091 62.68 48.6891 62.5733 48.4491 62.36C48.2357 62.12 48.0491 61.8667 47.8891 61.6C47.0091 60.1333 46.1424 58.5067 45.2891 56.72C44.4357 54.9333 43.7424 53.1867 43.2091 51.48C43.1557 51.3467 43.1557 51.2 43.2091 51.04C43.2891 50.8533 43.3957 50.7333 43.5291 50.68C43.7957 50.5467 44.1424 50.5333 44.5691 50.64C44.8891 50.7733 45.2091 51.0133 45.5291 51.36C45.8491 51.7067 46.1024 52.0667 46.2891 52.44C46.4491 52.8133 46.6357 53.24 46.8491 53.72C47.0624 54.2 47.2891 54.72 47.5291 55.28C47.7957 55.8133 48.0624 56.3467 48.3291 56.88C48.5957 57.4133 48.8624 57.8933 49.1291 58.32C49.5824 57.52 50.0624 56.6667 50.5691 55.76C51.1024 54.8267 51.6357 53.8933 52.1691 52.96C52.7024 52 53.2357 51.08 53.7691 50.2C54.3291 49.32 54.8757 48.5333 55.4091 47.84C55.5424 47.6533 55.7291 47.5467 55.9691 47.52C56.2091 47.4933 56.4757 47.5867 56.7691 47.8C57.4357 48.3067 57.6491 48.8667 57.4091 49.48Z" fill="#6961FA"/>
<path d="M83.2656 59.4688C83.0833 60.276 82.9922 60.888 82.9922 61.3047C82.9922 61.5391 83.0052 61.7214 83.0312 61.8516C82.901 61.8255 82.5495 61.6823 81.9766 61.4219C81.4297 61.1615 80.7526 60.849 79.9453 60.4844C79.1641 60.0938 78.3047 59.6771 77.3672 59.2344C76.4297 58.7656 75.5182 58.3099 74.6328 57.8672C73.7474 57.4245 72.9271 57.0208 72.1719 56.6562C71.4427 56.2656 70.8698 55.9531 70.4531 55.7188C70.9479 55.4844 71.5469 55.2109 72.25 54.8984C72.9792 54.5599 73.7474 54.1953 74.5547 53.8047C75.388 53.4141 76.2344 53.0234 77.0938 52.6328C77.9531 52.2161 78.7734 51.8255 79.5547 51.4609C80.3359 51.0703 81.0391 50.7318 81.6641 50.4453C82.3151 50.1328 82.8229 49.8724 83.1875 49.6641C83.0312 50.0547 82.9271 50.4974 82.875 50.9922C82.8229 51.487 82.8099 51.8646 82.8359 52.125C82.5495 52.2552 82.0026 52.4766 81.1953 52.7891C80.4141 53.1016 79.5417 53.4531 78.5781 53.8438C77.6146 54.2083 76.6771 54.5729 75.7656 54.9375C74.8542 55.276 74.1641 55.5495 73.6953 55.7578C74.112 55.9661 74.724 56.2656 75.5312 56.6562C76.3385 57.0208 77.1979 57.3984 78.1094 57.7891C79.0469 58.1797 79.9714 58.5312 80.8828 58.8438C81.8203 59.1562 82.6146 59.3646 83.2656 59.4688ZM87.1719 69.9766C86.7812 69.9766 86.2865 69.9766 85.6875 69.9766C85.0885 69.9766 84.4766 70.0677 83.8516 70.25C85.2578 67.4115 86.4948 64.8724 87.5625 62.6328C88.6562 60.3932 89.5677 58.4792 90.2969 56.8906C91.1562 55.0417 91.8984 53.4141 92.5234 52.0078C93.3307 50.2891 94.0599 48.7005 94.7109 47.2422C95.362 45.7839 95.9089 44.5208 96.3516 43.4531C96.8203 42.3854 97.1849 41.5521 97.4453 40.9531C97.7057 40.3542 97.862 40.0547 97.9141 40.0547C98.513 40.237 99.1771 40.3281 99.9062 40.3281C100.635 40.3281 101.208 40.263 101.625 40.1328C100.74 41.487 99.6068 43.3359 98.2266 45.6797C96.8464 48.0234 95.4401 50.6536 94.0078 53.5703C93.2266 55.1589 92.4844 56.7344 91.7812 58.2969C91.1042 59.8333 90.4661 61.3177 89.8672 62.75C89.2943 64.1562 88.7734 65.4844 88.3047 66.7344C87.862 67.9583 87.4844 69.0391 87.1719 69.9766ZM101.43 52.0469C101.534 51.6302 101.599 51.2786 101.625 50.9922C101.677 50.6797 101.703 50.4193 101.703 50.2109C101.703 49.9766 101.69 49.7943 101.664 49.6641C101.82 49.7161 102.172 49.8724 102.719 50.1328C103.292 50.3932 103.969 50.7188 104.75 51.1094C105.557 51.474 106.43 51.8906 107.367 52.3594C108.305 52.8021 109.203 53.2448 110.062 53.6875C110.948 54.1042 111.755 54.5078 112.484 54.8984C113.24 55.263 113.826 55.5625 114.242 55.7969C113.487 56.1615 112.51 56.6302 111.312 57.2031C110.115 57.75 108.878 58.3229 107.602 58.9219C106.326 59.5208 105.128 60.0938 104.008 60.6406C102.914 61.1615 102.094 61.5651 101.547 61.8516C101.677 61.4609 101.768 61.0312 101.82 60.5625C101.898 60.0938 101.911 59.7161 101.859 59.4297C102.146 59.2995 102.693 59.0781 103.5 58.7656C104.307 58.4531 105.18 58.1146 106.117 57.75C107.081 57.3594 108.018 56.9818 108.93 56.6172C109.841 56.2526 110.531 55.9661 111 55.7578C110.583 55.5495 109.971 55.263 109.164 54.8984C108.383 54.5339 107.523 54.1562 106.586 53.7656C105.648 53.375 104.711 53.0234 103.773 52.7109C102.862 52.3724 102.081 52.151 101.43 52.0469Z" fill="white"/>
</g>
<defs>
<clipPath id="clip0_108_46">
<rect width="196" height="90" fill="white"/>
</clipPath>
</defs>
</svg>
